<?xml version="1.0" encoding="utf-8"?>
<!-- Generator: Adobe Illustrator 26.1.0, SVG Export Plug-In . SVG Version: 6.00 Build 0)  -->
<svg version="1.1" id="Layer_1" xmlns="http://www.w3.org/2000/svg" xmlns:xlink="http://www.w3.org/1999/xlink" x="0px" y="0px"
	 viewBox="0 50 1080 800" style="enable-background:new 0 50 1080 800;" xml:space="preserve">
<style type="text/css">
	.st0{fill:#74BEE5;}
	.st1{fill:#FFFFFF;}
	.st2{fill:#F62705;}
</style>
<path d="M127.8,566.2c-5.9-3.2-10.5-7.5-13.8-13.1c-3.4-5.6-5-11.9-5-19c0-7,1.7-13.4,5-19c3.4-5.6,8-10,13.8-13.1
	c5.9-3.2,12.5-4.7,19.8-4.7c6.2,0,11.7,1.1,16.7,3.3c5,2.2,9.2,5.3,12.6,9.4l-10.6,9.8c-4.8-5.6-10.8-8.3-17.9-8.3
	c-4.4,0-8.3,1-11.8,2.9c-3.5,1.9-6.1,4.6-8.1,8.1s-2.9,7.4-2.9,11.8c0,4.4,1,8.3,2.9,11.8s4.6,6.1,8.1,8.1c3.5,1.9,7.4,2.9,11.8,2.9
	c7.1,0,13.1-2.8,17.9-8.4l10.6,9.8c-3.4,4.1-7.6,7.3-12.6,9.5c-5,2.2-10.6,3.3-16.8,3.3C140.2,570.9,133.7,569.3,127.8,566.2z"/>
<path d="M255.9,498.5l-30.8,71.1h-16.3l-30.7-71.1H196l21.6,50.8l22-50.8H255.9z"/>
<g>
	<g>
		<polygon class="st2" points="798.7,410.5 798.7,481.7 782.2,481.7 782.2,427 308.6,427 308.6,481.7 292.1,481.7 292.1,410.5 		"/>
		<polygon class="st2" points="798.7,586.5 798.7,657.7 292.1,657.7 292.1,586.5 308.6,586.5 308.6,641.2 782.2,641.2 782.2,586.5 
					"/>
	</g>
</g>
<path d="M390.7,498.5v71.1h-13.5l-35.5-43.2v43.2h-16.3v-71.1h13.6l35.4,43.2v-43.2H390.7z"/>
<path d="M472.8,498.5v71.1h-13.5l-35.5-43.2v43.2h-16.3v-71.1h13.6l35.4,43.2v-43.2H472.8z"/>
<path d="M504.2,566.1c-5.9-3.2-10.6-7.6-13.9-13.2c-3.4-5.6-5-11.9-5-18.9c0-7,1.7-13.3,5-18.9c3.4-5.6,8-10,13.9-13.2
	c5.9-3.2,12.6-4.8,20-4.8c7.4,0,14,1.6,19.9,4.8c5.9,3.2,10.5,7.6,13.9,13.2c3.4,5.6,5.1,11.9,5.1,18.9c0,7-1.7,13.3-5.1,18.9
	c-3.4,5.6-8,10-13.9,13.2c-5.9,3.2-12.5,4.8-19.9,4.8C516.8,570.9,510.1,569.3,504.2,566.1z M535.5,554c3.4-1.9,6-4.6,8-8.1
	c1.9-3.5,2.9-7.4,2.9-11.8c0-4.4-1-8.3-2.9-11.8c-1.9-3.5-4.6-6.1-8-8.1c-3.4-1.9-7.2-2.9-11.4-2.9c-4.2,0-8,1-11.4,2.9
	c-3.4,1.9-6,4.6-8,8.1s-2.9,7.4-2.9,11.8c0,4.4,1,8.3,2.9,11.8s4.6,6.1,8,8.1c3.4,1.9,7.2,2.9,11.4,2.9
	C528.3,556.9,532.1,555.9,535.5,554z"/>
<path d="M641.5,498.5l-30.8,71.1h-16.3l-30.7-71.1h17.8l21.6,50.8l22-50.8H641.5z"/>
<path d="M691.9,554.4h-33l-6.3,15.2h-16.9l31.7-71.1h16.3l31.8,71.1h-17.3L691.9,554.4z M686.8,541.9l-11.3-27.2l-11.3,27.2H686.8z"
	/>
<path d="M734.1,511.9h-22.8v-13.4h62v13.4h-22.8v57.7h-16.5V511.9z"/>
<path d="M782.2,498.5h16.5v71.1h-16.5V498.5z"/>
<path d="M830,566.1c-5.9-3.2-10.6-7.6-13.9-13.2c-3.4-5.6-5-11.9-5-18.9c0-7,1.7-13.3,5-18.9c3.4-5.6,8-10,13.9-13.2
	c5.9-3.2,12.6-4.8,20-4.8c7.4,0,14,1.6,19.9,4.8c5.9,3.2,10.5,7.6,13.9,13.2c3.4,5.6,5.1,11.9,5.1,18.9c0,7-1.7,13.3-5.1,18.9
	c-3.4,5.6-8,10-13.9,13.2c-5.9,3.2-12.5,4.8-19.9,4.8C842.6,570.9,835.9,569.3,830,566.1z M861.4,554c3.4-1.9,6-4.6,8-8.1
	c1.9-3.5,2.9-7.4,2.9-11.8c0-4.4-1-8.3-2.9-11.8c-1.9-3.5-4.6-6.1-8-8.1c-3.4-1.9-7.2-2.9-11.4-2.9c-4.2,0-8,1-11.4,2.9
	c-3.4,1.9-6,4.6-8,8.1s-2.9,7.4-2.9,11.8c0,4.4,1,8.3,2.9,11.8s4.6,6.1,8,8.1c3.4,1.9,7.2,2.9,11.4,2.9
	C854.2,556.9,858,555.9,861.4,554z"/>
<path d="M966.6,498.5v71.1H953l-35.5-43.2v43.2h-16.3v-71.1h13.6l35.4,43.2v-43.2H966.6z"/>
</svg>
